name processed_emg_signals
nRows=58
nColumns=7
 
endheader
time	RGLTMED	RRF	RADDLONG	RST	RTA	RGM
2.032	0.0357823451724774	0.024837740487693	0.0582400410892469	0.0315792479329705	0.2364605310725119	0.0269203988327433
2.033	0.0357453328886962	0.0247167451667719	0.0580157958173577	0.0313973209050577	0.23391309552892	0.0267033875813082
2.0340000000000003	0.0357111780565871	0.0245952475497996	0.0577949370831682	0.0312148138372256	0.2313900254415289	0.0265018481783624
2.035	0.035680033343796	0.0244733896418019	0.057577559458862	0.031031772859828	0.2288911463693969	0.0263159877939446
2.036	0.0356520501951996	0.0243513153760153	0.0573637554205336	0.0308482351939205	0.2264163294708775	0.0261459968319184
2.037	0.0356273785270849	0.0242291704129144	0.0571536152901961	0.0306642291649716	0.2239654904936782	0.0259920488156522
2.0380000000000003	0.0356061664258469	0.0241071019390483	0.0569472271725236	0.0304797742415077	0.2215385886311027	0.0258543002822191
2.039	0.0355885598513856	0.0239852584660482	0.0567446768862359	0.0302948810985973	0.2191356252525404	0.0257328906848099
2.04	0.0355747023452954	0.0238637896300465	0.0565460478902811	0.0301095517061303	0.2167566425163847	0.0256279423030911
2.041	0.0355647347439541	0.0237428459918369	0.0563514212052956	0.0299237794417515	0.2144017218736495	0.0255395601612699
2.0420000000000003	0.0355587948965718	0.0236225788380003	0.0561608753309989	0.0297375492283186	0.212070982470849	0.0254678319535904
2.043	0.0355570173882297	0.0235031399832409	0.0559744861604309	0.0295508376956527	0.2097645794609644	0.0254128279770058
2.044	0.0355595332680315	0.0233846815741586	0.0557923268920458	0.0293636133663927	0.2074827022315687	0.0253746010707313
2.045	0.0355664697824227	0.0232673558946408	0.0556144679407305	0.0291758368655979	0.2052255725592468	0.0253531865623608
2.0460000000000003	0.0355779501138386	0.0231513151730551	0.0554409768488884	0.028987461153801	0.2029934426994037	0.0253486022201515
2.047	0.0355940931247682	0.0230367113914057	0.0552719181986935	0.0287984317830793	0.2007865934202787	0.0253608482111203
2.048	0.0356150131073736	0.0229236960965904	0.0551073535266331	0.0286086871757331	0.1986053319896116	0.0253899070644884
2.049	0.0356408195387696	0.022812420213824	0.0549473412414098	0.0284181589250903	0.1964499901219417	0.0254357436401381
2.05	0.0356716168420494	0.0227030338623154	0.0547919365461267	0.0282267721179162	0.1943209218940403	0.0254983051016606
2.051	0.03570750415318	0.0225956861731434	0.0546411913656309	0.0280344456778651	0.1922185016353759	0.0255775208937612
2.052	0.0357485750938417	0.0224905251093204	0.0544951542796809	0.027841092729348	0.1901431217999384	0.0256733027238011
2.053	0.0357949175503327	0.0223876972878877	0.0543538704626263	0.0276466209811181	0.1880951908251269	0.0257855445473912
2.054	0.035846613458567	0.0222873478039395	0.0542173816300997	0.0274509331288986	0.1860751309828581	0.0259141225579796
2.055	0.0359037385952646	0.0221896200563813	0.0540857259932045	0.0272539272762888	0.1840833762275722	0.0260588951804752
2.056	0.0359663623753854	0.0220946555752831	0.0539589382205542	0.0270554973732307	0.1821203700454425	0.0262197030689635
2.057	0.0360345476558838	0.0220025938506539	0.0538370494083797	0.0268555336712446	0.1801865633086788	0.0263963691086052
2.058	0.0361083505458843	0.0219135721626114	0.0537200870589083	0.026653923194698	0.1782824121386197	0.0265886984218009
2.059	0.0361878202233205	0.021827725412913	0.0536080750671302	0.0264505502272648	0.1764083757810479	0.0267964783786882
2.06	0.0362729987580232	0.0217451859580027	0.0535010337160682	0.0262452968127724	0.1745649144970265	0.0270194786119998
2.061	0.0363639209411878	0.0216660834437172	0.0533989796806763	0.0260380432695479	0.172752487472382	0.027257451036304
2.062	0.0364606141211009	0.0215905446418837	0.0533019260403699	0.0258286687174434	0.1709715507487181	0.0275101298716212
2.063	0.0365630980450352	0.0215186932890089	0.0532098823002651	0.0256170516166815	0.1692225551786841	0.0277772316714547
2.064	0.036671384707233	0.0214506499272499	0.0531228544210385	0.0254030703177763	0.1675059444080488	0.0280584553553132
2.065	0.0367854782030013	0.0213865317478809	0.0530408448574278	0.0251866036218159	0.1658221528871532	0.0283534822458932
2.066	0.0369053745890466	0.0213264524374965	0.0529638526052676	0.0249675313503774	0.1641716039142715	0.0286619761111916
2.067	0.0370310617503336	0.0212705220271998	0.0528918732571128	0.0247457349244158	0.162554707713411	0.0289835832119687
2.068	0.0371625192737522	0.0212188467450724	0.0528248990664431	0.0245210979513629	0.1609718595492331	0.0293179323551211
2.069	0.037299718329005	0.0211715288722375	0.0527629190204926	0.0242935068196744	0.1594234378818278	0.0296646349536057
2.07	0.037442621557109	0.021128666602832	0.0527059189216558	0.0240628513000528	0.1579098025642671	0.0300232850936724
2.071	0.0375911829668706	0.0210903539081886	0.0526538814773736	0.0238290251524459	0.1564312930859385	0.0303934596101528
2.072	0.0377453478397303	0.0210566804055387	0.052606786398357	0.0235919267379663	0.1549882268648322	0.0307747181706443
2.073	0.0379050526432468	0.0210277312315127	0.0525646105049071	0.0233514596347523	0.1535808975921518	0.0311666033693563
2.074	0.0380702249534969	0.0210035869206902	0.0525273278410707	0.023107533256831	0.1522095736326543	0.0315686408314039
2.075	0.0382407833865777	0.0209843232894362	0.0524949097962392	0.0228600634749551	0.1508744964841522	0.0319803393283688
2.076	0.0384166375393363	0.0209700113251768	0.0524673252336542	0.0226089732384261	0.1495758792993601	0.0324011909058136
2.077	0.0385976879393925	0.0209607170812653	0.05244454062521	0.0223541931968322	0.1483139054730332	0.0328306710235451
2.078	0.0387838260044171	0.0209565015775249	0.0524265201918521	0.02209566232071	0.1470887272969643	0.0332682387093305
2.079	0.0389749340105544	0.0209574207064929	0.0524132260487887	0.021833328520069	0.145900464685024	0.0337133367268443
2.08	0.0391708850698259	0.0209635251453916	0.0524046183547882	0.0215671492597927	0.1447492039701222	0.0341653917587191
2.081	0.0393715431163213	0.0209748602737322	0.0524006554647987	0.0212970921708824	0.1436349967746975	0.034623814605653
2.082	0.0395767629009628	0.0209914660964798	0.0524012940852291	0.0210231356565175	0.1425578589563469	0.0350880004026158
2.083	0.0397863899947497	0.0210133771726946	0.0524064894312105	0.0207452694918641	0.1415177696302746	0.0355573288533324
2.084	0.0400002608003645	0.021040622549548	0.0524161953851445	0.0204634954165417	0.1405146702704335	0.0360311644842778
2.085	0.0402182025720165	0.0210732257016864	0.0524303646558135	0.0201778277186459	0.1395484638913827	0.0365088569195361
2.086	0.0404400334434721	0.0211112044758259	0.0524489489372227	0.0198882938091576	0.1386190143129211	0.0369897411778945
2.087	0.0406655624641129	0.0211545710404496	0.052471899066375	0.0195949347856266	0.137726145509524	0.0374731379935645
2.088	0.0408945896429404	0.0212033318404718	0.0524991651791088	0.0192978059839482	0.1368696410464981	0.0379583541618663
2.089	0.0411269060004021	0.0212574875566807	0.0525306968631029	0.0189969775170292	0.1360492436046161	0.038444682911092
